<svg xmlns="http://www.w3.org/2000/svg" viewBox="0 0 256 256" role="img" aria-labelledby="title desc">
  <title id="title">Artifact Review Canvas</title>
  <desc id="desc">A visual canvas for comparing artifacts and turning annotations into review actions.</desc>
  <defs>
    <linearGradient id="canvas" x1="38" y1="48" x2="218" y2="205" gradientUnits="userSpaceOnUse">
      <stop offset="0" stop-color="#F8FBFF"/>
      <stop offset="1" stop-color="#E7F0F7"/>
    </linearGradient>
    <linearGradient id="accent" x1="140" y1="121" x2="213" y2="204" gradientUnits="userSpaceOnUse">
      <stop offset="0" stop-color="#EF6F6C"/>
      <stop offset="1" stop-color="#7C5CFF"/>
    </linearGradient>
  </defs>
  <rect x="35" y="42" width="186" height="154" rx="18" fill="url(#canvas)" stroke="#23313A" stroke-width="8"/>
  <rect x="61" y="71" width="58" height="44" rx="8" fill="#FFFFFF" stroke="#23313A" stroke-width="6"/>
  <path d="M71 103l15-17 12 13 8-8 13 12" fill="none" stroke="#18A999" stroke-width="6" stroke-linecap="round" stroke-linejoin="round"/>
  <rect x="139" y="71" width="53" height="44" rx="8" fill="#FFFFFF" stroke="#23313A" stroke-width="6"/>
  <path d="M151 88h28M151 101h18" fill="none" stroke="#667985" stroke-width="6" stroke-linecap="round"/>
  <path d="M66 143h62M66 163h40" fill="none" stroke="#667985" stroke-width="7" stroke-linecap="round"/>
  <circle cx="163" cy="154" r="24" fill="none" stroke="#EF6F6C" stroke-width="7"/>
  <path d="M181 172l28 28" fill="none" stroke="#23313A" stroke-width="8" stroke-linecap="round"/>
  <path d="M153 154h20M163 144v20" fill="none" stroke="#EF6F6C" stroke-width="6" stroke-linecap="round"/>
  <path d="M88 210h80" fill="none" stroke="#23313A" stroke-width="8" stroke-linecap="round"/>
  <path d="M189 123l28-24 10 12-31 20 3 20-17-12-19 6 14-16-4-19 16 13Z" fill="url(#accent)" stroke="#23313A" stroke-width="6" stroke-linejoin="round"/>
</svg>
